<svg width="40" height="40" viewBox="0 0 40 40" fill="none" xmlns="http://www.w3.org/2000/svg">

  <rect
    width="40"
    height="40"
    rx="13"
    fill="url(#gradient)"
  />

  <!-- Outer neural orbit -->
  <path
    d="M20 5.5C27.8 5.5 34.5 11.9 34.5 20C34.5 28.1 27.8 34.5 20 34.5C12.2 34.5 5.5 28.1 5.5 20C5.5 11.9 12.2 5.5 20 5.5Z"
    stroke="white"
    stroke-width="1.5"
    stroke-opacity="0.35"
  />

  <!-- Synapse connections -->
  <path
    d="M20 20L12 12M20 20L28 12M20 20L12 28M20 20L28 28"
    stroke="white"
    stroke-width="1.7"
    stroke-linecap="round"
    stroke-opacity="0.9"
  />

  <!-- Horizontal + vertical connections -->
  <path
    d="M20 7.5V14M20 26V32.5M7.5 20H14M26 20H32.5"
    stroke="white"
    stroke-width="1.5"
    stroke-linecap="round"
    stroke-opacity="0.75"
  />

  <!-- Outer nodes -->
  <circle cx="11" cy="11" r="2.4" fill="white"/>
  <circle cx="29" cy="11" r="2.4" fill="white"/>
  <circle cx="11" cy="29" r="2.4" fill="white"/>
  <circle cx="29" cy="29" r="2.4" fill="white"/>

  <!-- Cardinal nodes -->
  <circle cx="20" cy="7" r="1.9" fill="white"/>
  <circle cx="20" cy="33" r="1.9" fill="white"/>
  <circle cx="7" cy="20" r="1.9" fill="white"/>
  <circle cx="33" cy="20" r="1.9" fill="white"/>

  <!-- Center -->
  <circle cx="20" cy="20" r="5" fill="white"/>
  <circle cx="20" cy="20" r="2.2" fill="#635BFF"/>

  <defs>
    <linearGradient
      id="gradient"
      x1="0"
      y1="0"
      x2="40"
      y2="40"
      gradientUnits="userSpaceOnUse"
    >
      <stop stop-color="#6D63FF"/>
      <stop offset="0.5" stop-color="#635BFF"/>
      <stop offset="1" stop-color="#8B5CF6"/>
    </linearGradient>
  </defs>

</svg>